<svg width="93" height="93" viewBox="0 0 93 93" fill="none" xmlns="http://www.w3.org/2000/svg">
<path d="M70.6382 66.4602C72.2841 66.4602 73.9138 66.136 75.4344 65.5062C76.955 64.8763 78.3367 63.9531 79.5005 62.7893C80.6643 61.6255 81.5875 60.2438 82.2174 58.7233C82.8472 57.2027 83.1714 55.5729 83.1714 53.927C83.1714 52.2811 82.8472 50.6513 82.2174 49.1308C81.5875 47.6102 80.6643 46.2285 79.5005 45.0647C78.3367 43.9009 76.955 42.9777 75.4344 42.3478C73.9138 41.718 72.2841 41.3938 70.6382 41.3938C67.3142 41.3938 64.1263 42.7143 61.7759 45.0647C59.4254 47.4151 58.105 50.603 58.105 53.927C58.105 57.251 59.4254 60.4389 61.7759 62.7893C64.1263 65.1397 67.3142 66.4602 70.6382 66.4602Z" stroke="#FFD522" stroke-width="4" stroke-linecap="round" stroke-linejoin="round"/>
<path d="M88.2772 80.386C86.184 77.7058 83.5075 75.5378 80.4511 74.0468C77.3946 72.5557 74.0386 71.7808 70.6379 71.7808C67.2371 71.7808 63.8811 72.5557 60.8247 74.0468C57.7682 75.5378 55.0918 77.7058 52.9985 80.386" stroke="#FFD522" stroke-width="4" stroke-linecap="round" stroke-linejoin="round"/>
<path d="M83.1715 54.3392C79.0368 55.5325 74.6648 55.6432 70.475 54.6606C66.2852 53.678 62.4182 51.6352 59.2451 48.728" stroke="#FFD522" stroke-width="4" stroke-linecap="round" stroke-linejoin="round"/>
<path d="M22.3618 66.4602C24.0077 66.4602 25.6375 66.136 27.1581 65.5062C28.6787 64.8763 30.0603 63.9531 31.2241 62.7893C32.3879 61.6255 33.3111 60.2438 33.941 58.7233C34.5708 57.2027 34.895 55.5729 34.895 53.927C34.895 52.2811 34.5708 50.6513 33.941 49.1308C33.3111 47.6102 32.3879 46.2285 31.2241 45.0647C30.0603 43.9009 28.6787 42.9777 27.1581 42.3478C25.6375 41.718 24.0077 41.3938 22.3618 41.3938C19.0378 41.3938 15.8499 42.7143 13.4995 45.0647C11.1491 47.4151 9.82861 50.603 9.82861 53.927C9.82861 57.251 11.1491 60.4389 13.4995 62.7893C15.8499 65.1397 19.0378 66.4602 22.3618 66.4602Z" stroke="#FFD522" stroke-width="4" stroke-linecap="round" stroke-linejoin="round"/>
<path d="M39.9974 80.3861C37.9046 77.7053 35.2283 75.5367 32.1718 74.0452C29.1153 72.5538 25.7591 71.7786 22.3581 71.7786C18.9571 71.7786 15.6009 72.5538 12.5444 74.0452C9.48788 75.5367 6.81156 77.7053 4.71875 80.3861" stroke="#FFD522" stroke-width="4" stroke-linecap="round" stroke-linejoin="round"/>
<path d="M34.8951 54.3392C30.7604 55.5325 26.3884 55.6432 22.1986 54.6606C18.0088 53.678 14.1418 51.6352 10.9688 48.728" stroke="#FFD522" stroke-width="4" stroke-linecap="round" stroke-linejoin="round"/>
<path d="M23.7544 15.8633C23.3851 15.8633 23.0309 15.7166 22.7697 15.4554C22.5085 15.1942 22.3618 14.84 22.3618 14.4707C22.3618 14.1014 22.5085 13.7472 22.7697 13.486C23.0309 13.2248 23.3851 13.0781 23.7544 13.0781" stroke="#FFD522"/>
<path d="M23.7544 15.8633C24.1237 15.8633 24.4779 15.7166 24.7391 15.4554C25.0003 15.1942 25.147 14.84 25.147 14.4707C25.147 14.1014 25.0003 13.7472 24.7391 13.486C24.4779 13.2248 24.1237 13.0781 23.7544 13.0781" stroke="#FFD522"/>
<path d="M46.5 15.8633C46.1307 15.8633 45.7765 15.7166 45.5153 15.4554C45.2541 15.1942 45.1074 14.84 45.1074 14.4707C45.1074 14.1014 45.2541 13.7472 45.5153 13.486C45.7765 13.2248 46.1307 13.0781 46.5 13.0781" stroke="#FFD522"/>
<path d="M46.5 15.8633C46.8693 15.8633 47.2235 15.7166 47.4847 15.4554C47.7459 15.1942 47.8926 14.84 47.8926 14.4707C47.8926 14.1014 47.7459 13.7472 47.4847 13.486C47.2235 13.2248 46.8693 13.0781 46.5 13.0781" stroke="#FFD522"/>
<path d="M69.2456 15.8633C68.8763 15.8633 68.5221 15.7166 68.2609 15.4554C67.9997 15.1942 67.853 14.84 67.853 14.4707C67.853 14.1014 67.9997 13.7472 68.2609 13.486C68.5221 13.2248 68.8763 13.0781 69.2456 13.0781" stroke="#FFD522"/>
<path d="M69.2456 15.8633C69.6149 15.8633 69.9692 15.7166 70.2303 15.4554C70.4915 15.1942 70.6382 14.84 70.6382 14.4707C70.6382 14.1014 70.4915 13.7472 70.2303 13.486C69.9692 13.2248 69.6149 13.0781 69.2456 13.0781" stroke="#FFD522"/>
</svg>
