<svg width="93" height="93" viewBox="0 0 93 93" fill="none" xmlns="http://www.w3.org/2000/svg">
<g clip-path="url(#clip0_395_1181)">
<path d="M75.5625 46.5H50.7672L36.236 29.0625H14.5312C12.2197 29.065 10.0035 29.9844 8.36897 31.619C6.73443 33.2535 5.81504 35.4697 5.8125 37.7812V55.2188C5.81427 56.7598 6.42722 58.2372 7.5169 59.3269C8.60657 60.4165 10.084 61.0295 11.625 61.0312V81.375C11.6268 82.916 12.2397 84.3934 13.3294 85.4831C14.4191 86.5728 15.8965 87.1857 17.4375 87.1875H29.0625C30.6035 87.1857 32.0809 86.5728 33.1706 85.4831C34.2603 84.3934 34.8732 82.916 34.875 81.375V61.0312H29.0625V81.375H17.4375V55.2188H11.625V37.7812C11.6257 37.0107 11.9321 36.2719 12.477 35.727C13.0219 35.1821 13.7607 34.8757 14.5312 34.875H33.514L48.0453 52.3125H75.5625C76.3331 52.3132 77.0719 52.6196 77.6168 53.1645C78.1616 53.7094 78.4681 54.4482 78.4688 55.2188V63.9375H72.6562V81.375H63.9375V63.9375H58.125V81.375C58.1268 82.916 58.7397 84.3934 59.8294 85.4831C60.9191 86.5728 62.3965 87.1857 63.9375 87.1875H72.6562C74.1973 87.1857 75.6747 86.5728 76.7644 85.4831C77.854 84.3934 78.467 82.916 78.4688 81.375V69.75C80.0098 69.7482 81.4872 69.1353 82.5769 68.0456C83.6665 66.9559 84.2795 65.4785 84.2812 63.9375V55.2188C84.2787 52.9072 83.3593 50.691 81.7248 49.0565C80.0902 47.4219 77.8741 46.5025 75.5625 46.5Z" fill="#FFD522"/>
<path d="M68.2969 43.5938C66.2851 43.5938 64.3184 42.9972 62.6457 41.8795C60.9729 40.7618 59.6692 39.1732 58.8993 37.3145C58.1294 35.4558 57.928 33.4106 58.3205 31.4374C58.7129 29.4643 59.6817 27.6518 61.1043 26.2293C62.5268 24.8067 64.3393 23.8379 66.3124 23.4455C68.2856 23.053 70.3308 23.2544 72.1895 24.0243C74.0482 24.7942 75.6368 26.0979 76.7545 27.7707C77.8722 29.4434 78.4688 31.4101 78.4688 33.4219C78.4655 36.1186 77.3928 38.704 75.4859 40.6109C73.579 42.5178 70.9936 43.5905 68.2969 43.5938ZM68.2969 29.0625C67.4347 29.0625 66.5918 29.3182 65.8749 29.7972C65.158 30.2762 64.5993 30.957 64.2693 31.7536C63.9394 32.5502 63.8531 33.4267 64.0213 34.2724C64.1895 35.118 64.6047 35.8948 65.2143 36.5044C65.824 37.1141 66.6008 37.5293 67.4464 37.6975C68.292 37.8657 69.1686 37.7794 69.9651 37.4494C70.7617 37.1195 71.4426 36.5607 71.9216 35.8438C72.4006 35.1269 72.6563 34.2841 72.6563 33.4219C72.6549 32.2661 72.1952 31.158 71.378 30.3408C70.5607 29.5235 69.4527 29.0638 68.2969 29.0625Z" fill="#FFD522"/>
<path d="M23.25 26.1563C20.9508 26.1563 18.7032 25.4745 16.7915 24.1971C14.8798 22.9197 13.3898 21.1041 12.5099 18.9799C11.63 16.8558 11.3998 14.5184 11.8484 12.2633C12.2969 10.0083 13.4041 7.93692 15.0299 6.31114C16.6557 4.68535 18.7271 3.57818 20.9821 3.12963C23.2371 2.68107 25.5745 2.91129 27.6987 3.79116C29.8229 4.67102 31.6385 6.16103 32.9158 8.07275C34.1932 9.98447 34.875 12.232 34.875 14.5313C34.8718 17.6134 33.646 20.5684 31.4666 22.7478C29.2871 24.9272 26.3322 26.153 23.25 26.1563ZM23.25 8.71876C22.1004 8.71876 20.9766 9.05965 20.0208 9.69834C19.0649 10.337 18.3199 11.2448 17.88 12.3069C17.44 13.369 17.3249 14.5377 17.5492 15.6652C17.7735 16.7927 18.3271 17.8284 19.1399 18.6413C19.9528 19.4542 20.9885 20.0078 22.116 20.2321C23.2436 20.4563 24.4123 20.3412 25.4744 19.9013C26.5364 19.4614 27.4442 18.7164 28.0829 17.7605C28.7216 16.8046 29.0625 15.6809 29.0625 14.5313C29.0607 12.9902 28.4478 11.5128 27.3581 10.4232C26.2684 9.33348 24.791 8.72052 23.25 8.71876Z" fill="#FFD522"/>
</g>
<defs>
<clipPath id="clip0_395_1181">
<rect width="93" height="93" fill="white"/>
</clipPath>
</defs>
</svg>
