<svg width="93" height="93" viewBox="0 0 93 93" fill="none" xmlns="http://www.w3.org/2000/svg">
<path d="M43.3295 17.4375V0H49.6705V17.4375H43.3295ZM70.3841 29.76L65.9454 24.7612L77.1477 12.4388L81.5864 17.4375L70.3841 29.76ZM77.1477 54.6375V47.6625H93V54.6375H77.1477ZM77.2534 89.745L66.0511 77.4225L70.5955 72.4238L81.7977 84.7463L77.2534 89.745ZM22.6159 29.76L11.4136 17.4375L15.8523 12.555L27.0545 24.8775L22.6159 29.76ZM21.1364 86.025H40.1591C42.5073 86.025 44.5037 85.1236 46.1481 83.321C47.7919 81.5175 48.6136 79.3283 48.6136 76.7529C48.6136 74.1768 47.8119 71.9588 46.2083 70.0988C44.6041 68.2388 42.623 67.3088 40.2648 67.3088H35.6148L33.7125 62.5425C32.6451 59.7718 30.9684 57.5677 28.682 55.9302C26.3957 54.2934 23.8805 53.475 21.1364 53.475C17.0268 53.475 13.5333 55.0544 10.6559 58.2134C7.77924 61.373 6.34091 65.2093 6.34091 69.7221C6.34091 74.2356 7.77924 78.0812 10.6559 81.2588C13.5333 84.4363 17.0268 86.025 21.1364 86.025ZM21.1364 93C15.2886 93 10.304 90.7331 6.18239 86.1994C2.0608 81.6656 0 76.1826 0 69.75C0 63.3174 2.0608 57.8344 6.18239 53.3006C10.304 48.7669 15.2886 46.5 21.1364 46.5C25.2045 46.5 28.9162 47.7595 32.2721 50.2781C35.6279 52.7968 38.1158 56.1488 39.7364 60.3338C43.9721 60.3338 47.5321 62.0229 50.4166 65.4011C53.301 68.7793 54.7432 72.8253 54.7432 77.5387C54.3908 81.8788 52.8398 85.5407 50.09 88.5244C47.3395 91.508 44.0292 93 40.1591 93H21.1364ZM54.7432 77.5387C54.5318 76.3467 54.3205 75.1842 54.1091 74.0512C53.8977 72.9183 53.6864 71.7558 53.475 70.5638C57.1386 69.0137 60.0626 66.4741 62.2466 62.9447C64.4306 59.4154 65.5227 55.4891 65.5227 51.1663C65.5227 45.3428 63.6733 40.3969 59.9744 36.3281C56.2756 32.2594 51.7841 30.225 46.5 30.225C41.764 30.225 37.6202 31.8785 34.0686 35.1854C30.5171 38.4932 28.4257 42.691 27.7943 47.7787C26.6671 47.5462 25.5575 47.333 24.4653 47.1394C23.3732 46.9457 22.2636 46.7325 21.1364 46.5C22.1228 39.6801 25.029 34.1001 29.8551 29.76C34.6812 25.4199 40.2295 23.25 46.5 23.25C53.5454 23.25 59.5342 25.9626 64.4659 31.3875C69.3977 36.8124 71.8636 43.4131 71.8636 51.1895C71.8636 57.2083 70.296 62.6199 67.1608 67.425C64.0256 72.2301 59.8863 75.6013 54.7432 77.5387Z" fill="#FFD522"/>
</svg>
