<svg width="93" height="93" viewBox="0 0 93 93" fill="none" xmlns="http://www.w3.org/2000/svg">
<g clip-path="url(#clip0_395_1200)">
<path d="M34.9285 87.8844C37.1658 90.1217 40.6256 90.2898 42.6561 88.2591L88.2588 42.6563C90.2896 40.6258 90.1215 37.166 87.8842 34.9287L80.4316 27.4761C76.5628 29.5653 71.3714 28.7564 67.8075 25.1924C64.2435 21.6284 63.4347 16.4371 65.5239 12.5683L58.0712 5.11563C55.8339 2.87831 52.3741 2.71069 50.3436 4.74122L4.74098 50.3439C2.71044 52.3744 2.87807 55.8342 5.1154 58.0715L12.5511 65.5072C16.4276 63.3672 21.6627 64.1635 25.2496 67.7506C28.8365 71.3371 29.6328 76.5723 27.4927 80.4491L34.9285 87.8844Z" stroke="#FFD522" stroke-width="6" stroke-linecap="round" stroke-linejoin="round"/>
</g>
<defs>
<clipPath id="clip0_395_1200">
<rect width="93" height="93" fill="white"/>
</clipPath>
</defs>
</svg>
