<svg width="98" height="100" viewBox="0 0 98 100" fill="none" xmlns="http://www.w3.org/2000/svg">
<g clip-path="url(#clip0_51_514)">
<path d="M76.6825 73.7767C72.5863 66.8104 66.2739 61.8152 58.9072 59.4472C71.7163 51.9459 71.4673 33.617 58.459 26.4551C45.4507 19.2933 29.4393 28.6699 29.6384 43.333C29.7284 49.9566 33.3098 56.0587 39.0959 59.4472C31.7292 61.8125 25.4168 66.8077 21.3206 73.7767C20.4546 75.1657 21.4419 76.956 23.0977 76.9992C23.9067 77.0204 24.6594 76.5931 25.0456 75.8934C30.1128 67.2787 39.069 62.1353 49.0016 62.1353C58.9341 62.1353 67.8903 67.2787 72.9575 75.8934C73.7479 77.3253 75.8176 77.3785 76.683 75.9892C77.1058 75.3103 77.1057 74.4555 76.6825 73.7767ZM33.94 43.0856C33.94 31.68 46.4913 24.5514 56.5323 30.2542C66.5734 35.9571 66.5734 50.2142 56.5323 55.917C54.2427 57.2174 51.6454 57.902 49.0016 57.902C40.687 57.8933 33.9489 51.2649 33.94 43.0856Z" fill="#003049"/>
</g>
<defs>
<clipPath id="clip0_51_514">
<rect width="98" height="100" fill="white"/>
</clipPath>
</defs>
</svg>
